<?xml version="1.0" encoding="UTF-8"?>
<svg width="62px" height="143px" viewBox="0 0 62 143" version="1.1" xmlns="http://www.w3.org/2000/svg" xmlns:xlink="http://www.w3.org/1999/xlink">
    <title>Group 13 Copy 2</title>
    <g id="Page-1" stroke="none" stroke-width="1" fill="none" fill-rule="evenodd">
        <g id="Group-15" transform="translate(-56.000000, -58.000000)" fill="">
            <g id="Group-13-Copy-2" transform="translate(56.000000, 58.000000)">
                <ellipse id="Oval-Copy-29" cx="2.88372093" cy="2.9035533" rx="2.88372093" ry="2.9035533"></ellipse>
                <ellipse id="Oval-Copy-39" cx="2.88372093" cy="21.0507614" rx="2.88372093" ry="2.9035533"></ellipse>
                <ellipse id="Oval-Copy-43" cx="2.88372093" cy="45.7309645" rx="2.88372093" ry="2.9035533"></ellipse>
                <ellipse id="Oval-Copy-47" cx="2.88372093" cy="63.8781726" rx="2.88372093" ry="2.9035533"></ellipse>
                <ellipse id="Oval-Copy-51" cx="2.88372093" cy="82.0253807" rx="2.88372093" ry="2.9035533"></ellipse>
                <ellipse id="Oval-Copy-55" cx="2.88372093" cy="103.80203" rx="2.88372093" ry="2.9035533"></ellipse>
                <ellipse id="Oval-Copy-59" cx="2.88372093" cy="121.949239" rx="2.88372093" ry="2.9035533"></ellipse>
                <ellipse id="Oval-Copy-63" cx="2.88372093" cy="140.096447" rx="2.88372093" ry="2.9035533"></ellipse>
                <ellipse id="Oval-Copy-36" cx="19.4651163" cy="2.9035533" rx="2.88372093" ry="2.9035533"></ellipse>
                <ellipse id="Oval-Copy-40" cx="19.4651163" cy="21.0507614" rx="2.88372093" ry="2.9035533"></ellipse>
                <ellipse id="Oval-Copy-44" cx="19.4651163" cy="45.7309645" rx="2.88372093" ry="2.9035533"></ellipse>
                <ellipse id="Oval-Copy-48" cx="19.4651163" cy="63.8781726" rx="2.88372093" ry="2.9035533"></ellipse>
                <ellipse id="Oval-Copy-52" cx="19.4651163" cy="82.0253807" rx="2.88372093" ry="2.9035533"></ellipse>
                <ellipse id="Oval-Copy-56" cx="19.4651163" cy="103.80203" rx="2.88372093" ry="2.9035533"></ellipse>
                <ellipse id="Oval-Copy-60" cx="19.4651163" cy="121.949239" rx="2.88372093" ry="2.9035533"></ellipse>
                <ellipse id="Oval-Copy-64" cx="19.4651163" cy="140.096447" rx="2.88372093" ry="2.9035533"></ellipse>
                <ellipse id="Oval-Copy-37" cx="41.0930233" cy="2.9035533" rx="2.88372093" ry="2.9035533"></ellipse>
                <ellipse id="Oval-Copy-41" cx="41.0930233" cy="21.0507614" rx="2.88372093" ry="2.9035533"></ellipse>
                <ellipse id="Oval-Copy-45" cx="41.0930233" cy="45.7309645" rx="2.88372093" ry="2.9035533"></ellipse>
                <ellipse id="Oval-Copy-49" cx="41.0930233" cy="63.8781726" rx="2.88372093" ry="2.9035533"></ellipse>
                <ellipse id="Oval-Copy-53" cx="41.0930233" cy="82.0253807" rx="2.88372093" ry="2.9035533"></ellipse>
                <ellipse id="Oval-Copy-57" cx="41.0930233" cy="103.80203" rx="2.88372093" ry="2.9035533"></ellipse>
                <ellipse id="Oval-Copy-61" cx="41.0930233" cy="121.949239" rx="2.88372093" ry="2.9035533"></ellipse>
                <ellipse id="Oval-Copy-65" cx="41.0930233" cy="140.096447" rx="2.88372093" ry="2.9035533"></ellipse>
                <ellipse id="Oval-Copy-38" cx="59.1162791" cy="2.9035533" rx="2.88372093" ry="2.9035533"></ellipse>
                <ellipse id="Oval-Copy-42" cx="59.1162791" cy="21.0507614" rx="2.88372093" ry="2.9035533"></ellipse>
                <ellipse id="Oval-Copy-46" cx="59.1162791" cy="45.7309645" rx="2.88372093" ry="2.9035533"></ellipse>
                <ellipse id="Oval-Copy-50" cx="59.1162791" cy="63.8781726" rx="2.88372093" ry="2.9035533"></ellipse>
                <ellipse id="Oval-Copy-54" cx="59.1162791" cy="82.0253807" rx="2.88372093" ry="2.9035533"></ellipse>
                <ellipse id="Oval-Copy-58" cx="59.1162791" cy="103.80203" rx="2.88372093" ry="2.9035533"></ellipse>
                <ellipse id="Oval-Copy-62" cx="59.1162791" cy="121.949239" rx="2.88372093" ry="2.9035533"></ellipse>
                <ellipse id="Oval-Copy-66" cx="59.1162791" cy="140.096447" rx="2.88372093" ry="2.9035533"></ellipse>
            </g>
        </g>
    </g>
</svg>